# xmcd CD database file
#
# Track frame offsets:
#	150
#	21376
#	53615
#	71392
#	92191
#	115887
#	130439
#	150456
#	163859
#	181077
#	197881
#	221762
#	240979
#	258931
#
# Disc length: 3674 seconds
#
# Revision: 0
# Processed by: cddbd v1.4PL0 Copyright (c) Steve Scherf et al.
# Submitted via: CDex 1.40Release
#
DISCID=bf0e580e
DTITLE=JoAnne Kelly - Tramp
DYEAR=2001
DGENRE=Blues
TTITLE0=Til My Baby Ain't Got No Bone
TTITLE1=Love Blind
TTITLE2=Nicki Hocky
TTITLE3=Feel Like Breaking Up Somebody's Home
TTITLE4=Jump Steady Daddy
TTITLE5=Put A Record On
TTITLE6=Help me Through The Night
TTITLE7=Travellin' Mood
TTITLE8=Baby What You Want Me To Do (Live)
TTITLE9=It's Too Late For That Now (Live)
TTITLE10=What You Gonna Do (Live)
TTITLE11=You Don't Love Me Baby (Live)
TTITLE12=Put A Record On (Live)
TTITLE13=You Got To Move (Live)
EXTD=YEAR: 2001 ID3G: 0
EXTT0=
EXTT1=
EXTT2=
EXTT3=
EXTT4=
EXTT5=
EXTT6=
EXTT7=
EXTT8=
EXTT9=
EXTT10=
EXTT11=
EXTT12=
EXTT13=
PLAYORDER=
